Coordinates
version=1
nRows=18
nColumns=22
inDegrees=yes

Units are S.I. units (second, meters, Newtons, ...)
If the header above contains a line with 'inDegrees', this indicates whether rotational values are in degrees (yes) or radians (no).

endheader
time	pelvis_tilt	pelvis_list	pelvis_rotation	pelvis_tx	pelvis_ty	pelvis_tz	hip_flexion_r	hip_adduction_r	hip_rotation_r	knee_angle_r	ankle_angle_r	subtalar_angle_r	hip_flexion_l	hip_adduction_l	hip_rotation_l	knee_angle_l	ankle_angle_l	subtalar_angle_l	lumbar_extension	lumbar_bending	lumbar_rotation
      1.97000000	     -5.35983708	     -2.12652106	    -28.74028734	     -0.82953231	      0.86991528	     -0.35885430	     36.06282070	     -4.30108604	     -2.11457456	    -27.24167396	      5.71031293	      5.77665104	     -7.23684235	     -1.84731931	      3.01769869	     -8.78416853	     23.09748008	     -1.23251565	     -4.11336687	      3.74324612	      4.84813089
      1.98000000	     -5.34310743	     -2.03279407	    -28.62368778	     -0.82566680	      0.86854996	     -0.35549886	     35.66239524	     -4.33452582	     -1.98242379	    -25.08587972	      5.42895133	      6.02518384	     -7.41874765	     -1.83706266	      3.13114520	     -9.06205376	     23.48387901	     -1.22707921	     -4.03066523	      3.67096947	      4.66571771
      1.99000000	     -5.33816946	     -1.92401618	    -28.50544733	     -0.82174624	      0.86710123	     -0.35205929	     35.27167394	     -4.36574841	     -1.80720557	    -22.95020554	      5.15297294	      6.31550816	     -7.59061442	     -1.82385250	      3.24259682	     -9.33788342	     23.86997220	     -1.20688042	     -3.92917866	      3.59161002	      4.48943701
      2.00000000	     -5.34065689	     -1.80422515	    -28.37959042	     -0.81777154	      0.86558091	     -0.34852173	     34.88709080	     -4.39770074	     -1.59746873	    -20.85305219	      4.90335057	      6.64187355	     -7.76184201	     -1.81254730	      3.35551371	     -9.60473504	     24.25575040	     -1.17068875	     -3.81722094	      3.50364426	      4.30997427
      2.01000000	     -5.35066472	     -1.67276777	    -28.24839280	     -0.81371001	      0.86398930	     -0.34491214	     34.51470869	     -4.44018070	     -1.37736626	    -18.81394387	      4.67796364	      6.98355676	     -7.93489932	     -1.79865678	      3.47289011	     -9.86101705	     24.63709378	     -1.12204553	     -3.68947403	      3.41452412	      4.13299502
      2.02000000	     -5.37825989	     -1.52796053	    -28.10714976	     -0.80959370	      0.86231807	     -0.34121481	     34.17368607	     -4.49130028	     -1.16173693	    -16.85892588	      4.48370212	      7.28067955	     -8.09666439	     -1.79016324	      3.60245579	    -10.10744062	     24.99993008	     -1.07500027	     -3.54122401	      3.31987042	      3.96036077
      2.03000000	     -5.40002835	     -1.37956884	    -27.95036183	     -0.80538259	      0.86060475	     -0.33746584	     33.84083157	     -4.56304420	     -0.98198968	    -15.00967056	      4.33873933	      7.61079013	     -8.28478885	     -1.78219492	      3.74028448	    -10.32347902	     25.36343108	     -1.01435623	     -3.40074444	      3.22500878	      3.76929842
      2.04000000	     -5.43936381	     -1.16579105	    -27.78543153	     -0.80112468	      0.85878062	     -0.33366735	     33.59127311	     -4.68901580	     -0.82224050	    -13.30101634	      4.21122056	      7.77202442	     -8.43034597	     -1.72466272	      3.91063541	    -10.53746167	     25.69452870	     -0.97673275	     -3.21337980	      3.07558031	      3.59398484
      2.05000000	     -5.47358836	     -1.04733111	    -27.59846763	     -0.79666263	      0.85702116	     -0.32976729	     33.26734078	     -4.75883119	     -0.81865052	    -11.69235738	      4.16707620	      8.16681485	     -8.67695545	     -1.76864304	      4.06799697	    -10.68986277	     26.01201612	     -0.90352773	     -3.07222311	      3.03007457	      3.40814012
      2.06000000	     -5.52775008	     -0.82898412	    -27.41156581	     -0.79220247	      0.85513173	     -0.32583645	     33.06960985	     -4.90141004	     -0.83253283	    -10.27490435	      4.11789203	      8.31288012	     -8.85833136	     -1.72989124	      4.25627532	    -10.83967695	     26.28369142	     -0.86120887	     -2.87448963	      2.89527687	      3.24653342
      2.07000000	     -5.57413974	     -0.68874414	    -27.19803828	     -0.78755367	      0.85331403	     -0.32180154	     32.81458261	     -4.99584401	     -1.02751988	     -8.99786563	      4.15278069	      8.61831076	     -9.13834098	     -1.77767820	      4.45324094	    -10.91557480	     26.51848743	     -0.78924269	     -2.72139025	      2.84207783	      3.07067521
      2.08000000	     -5.62347961	     -0.49009023	    -26.99207315	     -0.78285889	      0.85144103	     -0.31769507	     32.62899741	     -5.12749012	     -1.26995695	     -7.90750922	      4.19077178	      8.80728079	     -9.40627110	     -1.77647144	      4.65967154	    -10.96919640	     26.71210421	     -0.71928567	     -2.54514955	      2.73336302	      2.92711266
      2.09000000	     -5.67381523	     -0.27049612	    -26.78829388	     -0.77808661	      0.84955773	     -0.31350073	     32.47496521	     -5.26588054	     -1.58110416	     -6.99412774	      4.22976488	      8.92667575	     -9.69418355	     -1.76359571	      4.85926868	    -10.97917637	     26.87856674	     -0.64778974	     -2.36633215	      2.60737949	      2.79217002
      2.10000000	     -5.72724226	     -0.08921274	    -26.57867406	     -0.77318426	      0.84772453	     -0.30916721	     32.30031158	     -5.36166852	     -2.00330741	     -6.24131114	      4.32878150	      9.08039547	    -10.04352934	     -1.80453421	      5.04873141	    -10.92479100	     26.98426534	     -0.54061149	     -2.20479181	      2.52247571	      2.68172745
      2.11000000	     -5.80049341	      0.14499986	    -26.37619367	     -0.76824600	      0.84586195	     -0.30474537	     32.18381314	     -5.47798945	     -2.43402179	     -5.64963161	      4.34406616	      9.12335957	    -10.36878900	     -1.81170456	      5.24124486	    -10.84096682	     27.04678455	     -0.44281584	     -2.00808455	      2.39616888	      2.58714248
      2.12000000	     -5.88356835	      0.35063911	    -26.17203159	     -0.76322326	      0.84405736	     -0.30018768	     32.04605962	     -5.55262473	     -2.90717279	     -5.18717298	      4.33800465	      9.12578851	    -10.72536515	     -1.86511295	      5.41542808	    -10.72232742	     27.06463816	     -0.30029047	     -1.82236886	      2.30349155	      2.51742385
      2.13000000	     -6.00016942	      0.58515690	    -25.97423325	     -0.75816526	      0.84225981	     -0.29552089	     31.94667941	     -5.62321314	     -3.34777228	     -4.84488695	      4.17931727	      9.05024540	    -11.05133878	     -1.91602204	      5.58347899	    -10.58099825	     27.02577242	     -0.16394992	     -1.59828687	      2.20061177	      2.45414289
      2.14000000	     -6.14173007	      0.78661791	    -25.79074961	     -0.75306277	      0.84054655	     -0.29069328	     31.84063295	     -5.63324214	     -3.78119509	     -4.60696037	      3.82946883	      8.81280830	    -11.38468140	     -2.02219666	      5.72400177	    -10.42298253	     26.94659875	      0.06160189	     -1.37481111	      2.14199731	      2.43547414
